<svg viewBox="0 0 45 36" fill="white" xmlns="http://www.w3.org/2000/svg">
    <path d="M3.697 17.74l-1.174 2.94L0 27h2.348l1.349-3.38 1.174-2.94-1.174-2.94z"></path>
    <path d="M17.158 9h2.348l7.186 18h-2.348L17.158 9z"></path>
    <path d="M7.506 9h2.348l7.185 18h-2.347L7.506 9z"></path>
    <path d="M40.153 18.26l1.174-2.94L43.85 9h-2.347l-1.35 3.38-1.173 2.94 1.173 2.94z"></path>
    <path d="M36.344 27h-2.348L26.81 9h2.348l7.186 18z"></path>
    <path d="M26.81 9h2.348l7.186 18h-2.348L26.81 9z"></path>
    <path d="M17.223 9h2.333l7.142 18h-2.334L17.224 9z"></path>
</svg>
